<svg width="28" height="28" viewBox="0 0 28 28" fill="none" xmlns="http://www.w3.org/2000/svg">
  <path d="M17.5 4.4165C18.2823 4.41668 18.916 5.05121 18.916 5.8335V9.37354L23.8662 6.89893C24.3052 6.67953 24.8266 6.70345 25.2441 6.96143C25.6618 7.21954 25.916 7.67549 25.916 8.1665V19.8335C25.9159 20.3244 25.6616 20.7804 25.2441 21.0386C24.8265 21.2965 24.3052 21.3196 23.8662 21.1001L18.916 18.6245V22.1665C18.916 22.9488 18.2823 23.5833 17.5 23.5835H3.5C2.71761 23.5835 2.08301 22.9489 2.08301 22.1665V5.8335C2.08301 5.0511 2.7176 4.4165 3.5 4.4165H17.5Z" fill="#FFFFFF" stroke="#000000" stroke-width="1"/>
</svg>
