<svg width="24" height="24" viewBox="0 0 24 24" fill="none" xmlns="http://www.w3.org/2000/svg">
  <path d="M11.8942 8.95117L14.0635 10.3684H20.3069V15.2105H21.1742H22V5.63158L19.9894 3H11.8942V8.95117Z" fill="#FFFFFF"/>
  <path d="M6 14H18V18H6V14Z" fill="#FFFFFF"/>
  <path fill-rule="evenodd" clip-rule="evenodd" d="M3.5873 10.3684V15H2.79365V21H21.1742V15.2105H20.3069V10.3684H14.0635L11.8942 8.95117L9.83069 10.3684H3.5873ZM18 14H6V18H6V14Z" fill="#FFFFFF"/>
  <path d="M3.79894 3L2 5.52632V15H2.79365H3.5873V10.3684H9.83069L11.8942 8.95117V3H3.79894Z" fill="#FFFFFF"/>
  <path d="M11.8942 8.95117L9.83069 10.3684H3.5873V15H2.79365M11.8942 8.95117L14.0635 10.3684H20.3069V15.2105H21.1742M11.8942 8.95117V3M11.8942 3H19.9894L22 5.63158V15.2105H21.1742M11.8942 3H3.79894L2 5.52632V15H2.79365M21.1742 15.2105V21H2.79365V15M6 14H18V18H6V14Z" stroke="#000000"/>
</svg>
