<svg width="24" height="24" viewBox="0 0 24 24" fill="none" xmlns="http://www.w3.org/2000/svg">
  <path d="M23.042 8.75977C23.2375 8.77623 23.4049 8.90599 23.4707 9.09082C23.5365 9.27575 23.488 9.48191 23.3467 9.61816L22.2334 10.6924C22.1826 10.7413 22.122 10.7788 22.0557 10.8027L12.042 14.3994L12.6738 15.5977L15.1904 19.7402C15.2842 19.8946 15.2868 20.0877 15.1982 20.2451C15.1097 20.4024 14.9433 20.5 14.7627 20.5H4.31445C4.03831 20.5 3.81445 20.2761 3.81445 20V17.3555L3.37012 17.5156C3.2415 17.5618 3.09879 17.5533 2.97656 17.4922C2.85465 17.4311 2.7628 17.3227 2.72266 17.1924L2.35156 15.9834C2.27343 15.7286 2.4086 15.4569 2.65918 15.3662L21.2217 8.6543L21.3252 8.62793C21.3607 8.6232 21.3967 8.623 21.4326 8.62598L23.042 8.75977ZM22.0742 6.23145C22.2698 6.2478 22.4381 6.37757 22.5039 6.5625C22.5696 6.74731 22.521 6.95363 22.3799 7.08984L21.2656 8.16406C21.2148 8.213 21.1543 8.25055 21.0879 8.27441L2.40234 14.9873C2.27376 15.0335 2.13197 15.025 2.00977 14.9639C1.88761 14.9027 1.79505 14.7946 1.75488 14.6641L1.38379 13.4551C1.30573 13.2003 1.44176 12.9285 1.69238 12.8379L20.2539 6.12598L20.3584 6.10059C20.3938 6.09591 20.43 6.09467 20.4658 6.09766L22.0742 6.23145ZM21.2119 3.63574C21.4076 3.65207 21.5758 3.78185 21.6416 3.9668C21.7073 4.15168 21.6588 4.35792 21.5176 4.49414L20.4043 5.56836C20.3534 5.61741 20.2921 5.65482 20.2256 5.67871L1.54004 12.3916C1.41147 12.4377 1.26962 12.4293 1.14746 12.3682C1.02542 12.3071 0.933759 12.1988 0.893555 12.0684L0.522461 10.8594C0.444234 10.6045 0.579375 10.3329 0.830078 10.2422L1.33301 10.0596L1.02051 9.12598C0.933486 8.86551 1.07316 8.58317 1.33301 8.49414L3.68457 7.68848L3.75586 7.66992C3.82891 7.65652 3.90427 7.66014 3.97656 7.67969L6.22852 8.28906L19.3916 3.53027C19.4593 3.50579 19.5318 3.49597 19.6035 3.50195L21.2119 3.63574Z" fill="#FFFFFF" stroke="#000000" stroke-linejoin="round"/>
</svg>
