<svg width="28" height="28" viewBox="0 0 24 24" fill="none" xmlns="http://www.w3.org/2000/svg">
  <path d="M17 4.5C17.1326 4.5 17.2597 4.55273 17.3535 4.64648C17.4473 4.74025 17.5 4.86739 17.5 5V9.99902C17.5 10.2752 17.2761 10.499 17 10.499H13.4502V13.1904L20.3877 21.6836C20.5096 21.833 20.5346 22.0396 20.4521 22.2139C20.3694 22.3884 20.1931 22.5 20 22.5H18C17.8571 22.5 17.7209 22.4389 17.626 22.332L13.4502 17.6201V21.9922C13.4502 22.2683 13.2263 22.4922 12.9502 22.4922H10.9502C10.6757 22.4921 10.4524 22.2706 10.4502 21.9961L10.4141 17.6377L6.37891 22.3262C6.28392 22.4365 6.14559 22.5 6 22.5H4C3.80746 22.5 3.63191 22.3895 3.54883 22.2158C3.46579 22.042 3.49029 21.8354 3.61133 21.6855L10.4502 13.2188V10.499L7 10.5C6.86741 10.5 6.74025 10.4473 6.64648 10.3535C6.55272 10.2597 6.5 10.1326 6.5 10V5.00098C6.5 4.72485 6.72388 4.501 7 4.50098L17 4.5ZM22.7227 2.58398C22.8761 2.48171 23.0738 2.47259 23.2363 2.55957C23.3986 2.64666 23.5 2.81578 23.5 3V7.66602C23.5 7.82024 23.4284 7.96584 23.3066 8.06055L20.3066 10.3945C20.1559 10.5117 19.9518 10.5331 19.7803 10.4492C19.6087 10.3653 19.5 10.191 19.5 10V5.00098C19.5 4.83384 19.5836 4.6777 19.7227 4.58496L22.7227 2.58398ZM4.5 10C4.5 10.191 4.39126 10.3653 4.21973 10.4492C4.04823 10.5331 3.84407 10.5117 3.69336 10.3945L0.693359 8.06055C0.571632 7.96584 0.500033 7.82024 0.5 7.66602V3L0.504883 2.93164C0.526526 2.77469 0.621703 2.63575 0.763672 2.55957C0.926245 2.47259 1.12393 2.48171 1.27734 2.58398L4.27734 4.58496C4.41639 4.6777 4.5 4.83384 4.5 5.00098V10Z" fill="#FFFFFF" stroke="#000000" stroke-linejoin="round"/>
</svg>
