<svg width="42" height="30" viewBox="0 0 42 30" fill="none" xmlns="http://www.w3.org/2000/svg">
  <path d="M35.7881 8.51465L33.9658 14.873L33.9268 15.0107L33.9658 15.1484L35.7793 21.4941L34.5547 21.4873C32.4701 19.9119 30.3741 18.3513 28.2656 16.8076L28.1338 16.7119L27.9707 16.7109C26.6359 16.7083 23.6595 16.7249 21.0195 16.7422C19.699 16.7508 18.4618 16.7599 17.5547 16.7666C17.1013 16.7699 16.7303 16.7725 16.4727 16.7744C16.3439 16.7754 16.2431 16.7768 16.1748 16.7773C16.1407 16.7776 16.1142 16.7772 16.0967 16.7773C16.0881 16.7774 16.0816 16.7783 16.0771 16.7783H16.0703L15.5225 16.7822L15.5762 17.3271L15.7178 18.7539L13.7783 17.0059L13.6299 16.8721L13.4307 16.8779H13.4189C10.0969 16.9674 7.22056 17.026 4.76758 15.0088C7.26362 13.0467 10.1759 13.0243 13.4678 13.1396L13.6748 13.1475L13.8252 13.0068L15.7217 11.249L15.5762 12.7812L15.5244 13.3291H28.1211L28.25 13.2402C30.3251 11.8056 32.595 10.0053 34.6641 8.50195L35.7881 8.51465Z" fill="#15FFF6" stroke="#000000"/>
</svg>
