<svg width="28" height="28" viewBox="0 0 28 28" fill="none" xmlns="http://www.w3.org/2000/svg">
  <path d="M14 2.5835C20.305 2.58367 25.416 7.69534 25.416 14.0005V14.9165H23.583V14.0005C23.583 8.70787 19.2926 4.41668 14 4.4165H13.083V2.5835H14Z" fill="#FFFFFF" stroke="#000000" stroke-width="1"/>
  <path d="M13.416 13.2871L13.5928 13.1104L15.166 11.5361L16.4619 12.833L14.8896 14.4062L14.7129 14.583L22.167 22.0371L21.4141 22.6816C16.9279 26.5207 10.1721 26.3184 5.92676 22.0732C1.68145 17.8279 1.4782 11.0712 5.31738 6.58496L5.96094 5.83203L13.416 13.2871Z" fill="#FFFFFF" stroke="#000000" stroke-width="1"/>
  <path d="M14 6.0835C18.3721 6.08367 21.916 9.62835 21.916 14.0005V14.9165H20.083V14.0005C20.083 10.6409 17.3596 7.91668 14 7.9165H13.083V6.0835H14Z" fill="#FFFFFF" stroke="#000000" stroke-width="1"/>
</svg>
