<svg width="28" height="28" viewBox="0 0 28 28" fill="none" xmlns="http://www.w3.org/2000/svg">
  <path d="M22.3164 1.68018L23.1152 2.52979C27.6277 7.33379 27.6281 14.8319 23.1162 19.6362L22.3174 20.4868L22.1465 20.6694L21.9639 20.4985L20.2627 18.9009L20.0811 18.73L20.252 18.5474L21.0508 17.6968C24.5387 13.9829 24.5382 8.18391 21.0498 4.47021L20.251 3.61963L20.0801 3.43799L20.2627 3.26611L21.9629 1.66846L22.1455 1.49756L22.3164 1.68018Z" fill="#FFFFFF" stroke="#000000" stroke-width="1"/>
  <path d="M6.02637 1.67676L7.72949 3.27246L7.91113 3.44336L7.74023 3.62598L6.94238 4.47754C3.46137 8.19154 3.46372 13.985 6.94922 17.6963L7.74805 18.5469L7.91895 18.7295L7.7373 18.9004L6.03613 20.498L5.85352 20.6689L5.68262 20.4863L4.88379 19.6367C0.374552 14.8356 0.372449 7.34459 4.87598 2.54004L5.67383 1.68848L5.84473 1.50586L6.02637 1.67676Z" fill="#FFFFFF" stroke="#000000" stroke-width="1"/>
  <path d="M9.05371 5.16504L10.8516 6.65137L11.0449 6.81055L10.8857 7.00391L10.1416 7.90234C8.61968 9.74292 8.61989 12.423 10.1416 14.2637L10.8857 15.1631L11.0449 15.3555L10.8516 15.5146L9.05371 17.002L8.86133 17.1611L8.70215 16.9688L7.95801 16.0693C5.56993 13.181 5.57 8.98603 7.95801 6.09766L8.70215 5.19824L8.86133 5.00586L9.05371 5.16504Z" fill="#FFFFFF" stroke="#000000" stroke-width="1"/>
  <path d="M19.2988 5.19824L20.042 6.09766C22.4301 8.98606 22.4302 13.181 20.042 16.0693L19.2988 16.9688L19.1396 17.1611L18.9463 17.002L17.1484 15.5146L16.9561 15.3555L17.1152 15.1631L17.8584 14.2637C19.3802 12.423 19.3803 9.74295 17.8584 7.90234L17.1152 7.00391L16.9561 6.81055L17.1484 6.65137L18.9463 5.16504L19.1387 5.00586L19.2988 5.19824Z" fill="#FFFFFF" stroke="#000000" stroke-width="1"/>
  <path d="M14 7.9165C15.7488 7.91655 17.167 9.33462 17.167 11.0835C17.1669 11.9135 16.8438 12.6665 16.3213 13.231L20.3838 25.147L20.4648 25.3833L20.2275 25.4644L18.0195 26.2173L17.7832 26.2974L17.7021 26.061L16.46 22.4165H11.54L10.2979 26.061L10.2168 26.2974L9.98047 26.2173L7.77148 25.4644L7.53516 25.3833L7.61621 25.147L11.6777 13.231C11.1555 12.6665 10.8331 11.9133 10.833 11.0835C10.833 9.3346 12.2511 7.9165 14 7.9165ZM12.5059 19.5835H15.4941L14 15.1997L12.5059 19.5835Z" fill="#FFFFFF" stroke="#000000" stroke-width="1"/>
</svg>
