<svg xmlns="http://www.w3.org/2000/svg" width="1200" height="630" viewBox="0 0 1200 630">
  <defs>
    <linearGradient id="g" x1="0" y1="0" x2="1" y2="1">
      <stop offset="0" stop-color="#0b0d10"/>
      <stop offset="1" stop-color="#111827"/>
    </linearGradient>
    <filter id="noise" x="-20%" y="-20%" width="140%" height="140%">
      <feTurbulence type="fractalNoise" baseFrequency="0.9" numOctaves="2" stitchTiles="stitch" />
      <feColorMatrix type="matrix" values="
        1 0 0 0 0
        0 1 0 0 0
        0 0 1 0 0
        0 0 0 0.06 0"/>
    </filter>
  </defs>

  <rect width="1200" height="630" fill="url(#g)"/>
  <rect width="1200" height="630" filter="url(#noise)" opacity="0.5"/>

  <g transform="translate(88 110)">
    <rect x="0" y="0" width="1024" height="410" rx="28" fill="#0b0d10" opacity="0.55" stroke="#ffffff" stroke-opacity="0.08"/>

    <g transform="translate(54 58)">
      <g fill="none" stroke="#e4e4e7" stroke-width="10" stroke-linejoin="round" opacity="0.9">
        <path d="M0 48l64-36 64 36-64 36-64-36Z"/>
        <path d="M0 120l64-36 64 36-64 36-64-36Z" opacity="0.7"/>
        <path d="M0 192l64-36 64 36-64 36-64-36Z" opacity="0.5"/>
      </g>

      <text x="170" y="62" font-family="Inter, system-ui, -apple-system, Segoe UI, Arial" font-size="56" fill="#e4e4e7" font-weight="700">
        C1Flow
      </text>
      <text x="170" y="112" font-family="Inter, system-ui, -apple-system, Segoe UI, Arial" font-size="26" fill="#a1a1aa">
        řŠ’„ ŗŔ‘’‹ řōŤ’Í " Íś’“Í řš‘ " ‘ÍŤ–’Í —÷řŖ –řÍ
      </text>

      <g transform="translate(170 156)" font-family="ui-monospace, SFMono-Regular, Menlo, Monaco, Consolas, Liberation Mono, monospace" font-size="20" fill="#d4d4d8" opacity="0.95">
        <text x="0" y="0">Needs review</text>
        <text x="0" y="54">Tasks</text>
        <text x="0" y="108">Cleared</text>
        <text x="0" y="162">Expired</text>
      </g>

      <g transform="translate(420 144)" fill="none" stroke="#ffffff" stroke-opacity="0.12">
        <rect x="0" y="0" width="520" height="240" rx="18"/>
        <path d="M48 204c86-92 170-78 254-140 76-56 150-42 218-104" stroke-width="4" stroke-linecap="round"/>
        <circle cx="302" cy="70" r="8" fill="#e4e4e7" fill-opacity="0.7" stroke="none"/>
        <circle cx="480" cy="30" r="8" fill="#e4e4e7" fill-opacity="0.55" stroke="none"/>
      </g>
    </g>
  </g>
</svg>
